# https://github.com/mikedh/trimesh
mtllib material.mtl
usemtl fr_act_plus_chro
v -0.14427889 0.13781307 0.28996544
v -0.14427889 0.13653106 0.28996544
v -0.14780058 0.13653234 0.29119745
v -0.14780058 0.13781435 0.29119617
v -0.13686502 0.13781307 0.32244521
v -0.13686630 0.13653106 0.32244521
v -0.13334462 0.13653106 0.32121319
v -0.13334462 0.13781307 0.32121319
v -0.15095818 0.13653234 0.29318200
v -0.15095818 0.13781435 0.29318200
v -0.13018574 0.13653106 0.31922864
v -0.13018574 0.13781307 0.31922864
v -0.15359656 0.13653234 0.29581910
v -0.15359656 0.13781435 0.29581910
v -0.12754864 0.13653106 0.31659154
v -0.12754864 0.13781307 0.31659154
v -0.15558111 0.13653234 0.29897798
v -0.15558111 0.13781435 0.29897798
v -0.12556409 0.13653106 0.31343266
v -0.12556409 0.13781307 0.31343266
v -0.15681312 0.13653234 0.30249838
v -0.15681312 0.13781435 0.30249838
v -0.12433207 0.13653106 0.30991226
v -0.12433207 0.13781307 0.30991226
v -0.15723106 0.13653234 0.30620468
v -0.15723106 0.13781435 0.30620468
v -0.12391414 0.13653106 0.30620468
v -0.12391414 0.13781307 0.30620468
v -0.15681312 0.13653234 0.30991226
v -0.15681312 0.13781435 0.30991226
v -0.12433207 0.13653106 0.30249838
v -0.12433207 0.13781307 0.30249838
v -0.15558111 0.13653234 0.31343266
v -0.15558111 0.13781435 0.31343266
v -0.12556409 0.13653106 0.29897798
v -0.12556409 0.13781307 0.29897798
v -0.15359656 0.13653234 0.31659154
v -0.15359656 0.13781435 0.31659154
v -0.12754864 0.13653106 0.29581910
v -0.12754864 0.13781307 0.29581910
v -0.15095818 0.13653234 0.31922864
v -0.15095818 0.13781435 0.31922864
v -0.13018574 0.13653106 0.29318200
v -0.13018574 0.13781307 0.29318200
v -0.14780058 0.13653234 0.32121319
v -0.14780058 0.13781435 0.32121319
v -0.13334462 0.13653106 0.29119617
v -0.13334462 0.13781307 0.29119617
v -0.14427889 0.13653106 0.32244521
v -0.14427889 0.13781307 0.32244521
v -0.13686630 0.13653106 0.28996544
v -0.13686630 0.13781307 0.28996415
v -0.14057260 0.13653106 0.32286314
v -0.14057260 0.13781307 0.32286314
v -0.14057260 0.13781307 0.28954750
v -0.14057260 0.13653106 0.28954750
v -0.14057260 0.13653106 0.28954750
v -0.14057260 0.13781307 0.28954750
vn -0.22250709 0.00000000 -0.97493107
vn -0.22250709 0.00000000 -0.97493107
vn -0.43388477 0.00000000 -0.90096837
vn -0.43388477 0.00000000 -0.90096837
vn 0.22250709 0.00000000 0.97493107
vn 0.22250709 0.00000000 0.97493107
vn 0.43388477 0.00000000 0.90096837
vn 0.43388477 0.00000000 0.90096837
vn -0.62351138 0.00000000 -0.78181427
vn -0.62351138 0.00000000 -0.78181427
vn 0.62351138 0.00000000 0.78181427
vn 0.62351138 0.00000000 0.78181427
vn -0.78181427 0.00000000 -0.62351138
vn -0.78181427 0.00000000 -0.62351138
vn 0.78181427 0.00000000 0.62351138
vn 0.78181427 0.00000000 0.62351138
vn -0.90096837 0.00000000 -0.43388477
vn -0.90096837 0.00000000 -0.43388477
vn 0.90096837 0.00000000 0.43388477
vn 0.90096837 0.00000000 0.43388477
vn -0.97493107 0.00000000 -0.22250709
vn -0.97493107 0.00000000 -0.22250709
vn 0.97493107 0.00000000 0.22250709
vn 0.97493107 0.00000000 0.22250709
vn -1.00000000 0.00000000 0.00000000
vn -1.00000000 0.00000000 0.00000000
vn 1.00000000 -0.00010000 0.00000000
vn 1.00000000 -0.00010000 0.00000000
vn -0.97493107 0.00000000 0.22250709
vn -0.97493107 0.00000000 0.22250709
vn 0.97493107 -0.00010000 -0.22250709
vn 0.97493107 -0.00010000 -0.22250709
vn -0.90096837 0.00000000 0.43388477
vn -0.90096837 0.00000000 0.43388477
vn 0.90096837 0.00000000 -0.43388477
vn 0.90096837 0.00000000 -0.43388477
vn -0.78181427 0.00010000 0.62351138
vn -0.78181427 0.00010000 0.62351138
vn 0.78181427 0.00000000 -0.62351138
vn 0.78181427 0.00000000 -0.62351138
vn -0.62351138 0.00000000 0.78181427
vn -0.62351138 0.00000000 0.78181427
vn 0.62351138 0.00000000 -0.78181427
vn 0.62351138 0.00000000 -0.78181427
vn -0.43388477 0.00000000 0.90096837
vn -0.43388477 0.00000000 0.90096837
vn 0.43388477 0.00000000 -0.90096837
vn 0.43388477 0.00000000 -0.90096837
vn -0.22250709 0.00000000 0.97493107
vn -0.22250709 0.00000000 0.97493107
vn 0.22250709 0.00000000 -0.97493107
vn 0.22250709 0.00000000 -0.97493107
vn 0.00000000 0.00000000 1.00000000
vn 0.00000000 0.00000000 1.00000000
vn 0.00000000 0.00000000 -1.00000000
vn 0.00000000 0.00000000 -1.00000000
vn 0.00000000 0.00000000 -1.00000000
vn 0.00000000 0.00000000 -1.00000000
vt 0.90778900 0.57542100
vt 0.91049900 0.57542100
vt 0.91049900 0.56753500
vt 0.90778800 0.56753500
vt 0.90778900 0.46501900
vt 0.91049900 0.46501900
vt 0.91049900 0.45713400
vt 0.90778900 0.45713400
vt 0.91049900 0.55965000
vt 0.90778800 0.55965000
vt 0.91049900 0.44924800
vt 0.90778900 0.44924800
vt 0.91049900 0.55176400
vt 0.90778800 0.55176400
vt 0.91049900 0.44136200
vt 0.90778900 0.44136200
vt 0.91049800 0.54387800
vt 0.90778800 0.54387800
vt 0.91049900 0.43347600
vt 0.90778900 0.43347600
vt 0.91049800 0.53599200
vt 0.90778800 0.53599200
vt 0.91049900 0.42559000
vt 0.90778900 0.42559000
vt 0.91049800 0.52810600
vt 0.90778800 0.52810600
vt 0.91049900 0.41770500
vt 0.90778900 0.41770500
vt 0.91049800 0.52022000
vt 0.90778800 0.52022000
vt 0.91049900 0.40981900
vt 0.90778900 0.40981900
vt 0.91049800 0.51233500
vt 0.90778800 0.51233400
vt 0.91049900 0.40193300
vt 0.90778900 0.40193300
vt 0.91049900 0.50444900
vt 0.90778800 0.50444900
vt 0.91049900 0.39404700
vt 0.90778900 0.39404700
vt 0.91049900 0.49656300
vt 0.90778800 0.49656300
vt 0.91049900 0.38616200
vt 0.90778900 0.38616100
vt 0.91049900 0.48867700
vt 0.90778800 0.48867700
vt 0.91049900 0.37827600
vt 0.90778800 0.37827600
vt 0.91049900 0.48079100
vt 0.90778800 0.48079100
vt 0.91049900 0.37039000
vt 0.90778800 0.37039000
vt 0.91049900 0.47290500
vt 0.90778800 0.47290500
vt 0.90778900 0.58330700
vt 0.91049900 0.58330700
vt 0.91049900 0.36250400
vt 0.90778800 0.36250400
f 1/1/1 2/2/2 3/3/3
f 1/1/1 3/3/3 4/4/4
f 5/5/5 6/6/6 7/7/7
f 5/5/5 7/7/7 8/8/8
f 4/4/4 3/3/3 9/9/9
f 4/4/4 9/9/9 10/10/10
f 8/8/8 7/7/7 11/11/11
f 8/8/8 11/11/11 12/12/12
f 10/10/10 9/9/9 13/13/13
f 10/10/10 13/13/13 14/14/14
f 12/12/12 11/11/11 15/15/15
f 12/12/12 15/15/15 16/16/16
f 14/14/14 13/13/13 17/17/17
f 14/14/14 17/17/17 18/18/18
f 16/16/16 15/15/15 19/19/19
f 16/16/16 19/19/19 20/20/20
f 18/18/18 17/17/17 21/21/21
f 18/18/18 21/21/21 22/22/22
f 20/20/20 19/19/19 23/23/23
f 20/20/20 23/23/23 24/24/24
f 22/22/22 21/21/21 25/25/25
f 22/22/22 25/25/25 26/26/26
f 24/24/24 23/23/23 27/27/27
f 24/24/24 27/27/27 28/28/28
f 26/26/26 25/25/25 29/29/29
f 26/26/26 29/29/29 30/30/30
f 28/28/28 27/27/27 31/31/31
f 28/28/28 31/31/31 32/32/32
f 30/30/30 29/29/29 33/33/33
f 30/30/30 33/33/33 34/34/34
f 32/32/32 31/31/31 35/35/35
f 32/32/32 35/35/35 36/36/36
f 34/34/34 33/33/33 37/37/37
f 34/34/34 37/37/37 38/38/38
f 36/36/36 35/35/35 39/39/39
f 36/36/36 39/39/39 40/40/40
f 38/38/38 37/37/37 41/41/41
f 38/38/38 41/41/41 42/42/42
f 40/40/40 39/39/39 43/43/43
f 40/40/40 43/43/43 44/44/44
f 42/42/42 41/41/41 45/45/45
f 42/42/42 45/45/45 46/46/46
f 44/44/44 43/43/43 47/47/47
f 44/44/44 47/47/47 48/48/48
f 46/46/46 45/45/45 49/49/49
f 46/46/46 49/49/49 50/50/50
f 48/48/48 47/47/47 51/51/51
f 48/48/48 51/51/51 52/52/52
f 50/50/50 49/49/49 53/53/53
f 50/50/50 53/53/53 54/54/54
f 55/55/55 56/56/56 2/2/2
f 55/55/55 2/2/2 1/1/1
f 52/52/52 51/51/51 57/57/57
f 52/52/52 57/57/57 58/58/58
f 54/54/54 53/53/53 6/6/6
f 54/54/54 6/6/6 5/5/5